<?xml version="1.0" encoding="UTF-8"?>
<svg id="Layer_2" data-name="Layer 2" xmlns="http://www.w3.org/2000/svg" xmlns:xlink="http://www.w3.org/1999/xlink" viewBox="0 0 331.5 187.5">
	<defs>
		<style>
			.cls-1,
			.cls-2 {
				fill: none;
			}

			.cls-3,
			.cls-4 {
				font-family: Helvetica, Helvetica;
				font-size: 13.99px;
			}

			.cls-2 {
				stroke: #0b0c0c;
				stroke-width: 1.5px;
			}

			.cls-4 {
				fill: #484949;
			}

			.cls-5 {
				fill: #fff;
			}

			.cls-6 {
				clip-path: url(#clippath);
			}

			.cls-7 {
				font-family: Helvetica-Bold, Helvetica;
				font-size: 24px;
				font-weight: 700;
			}
		</style>
		<clipPath id="clippath">
			<rect class="cls-1" width="331.5" height="187.5" />
		</clipPath>
	</defs>
	<g id="Layer_1-2" data-name="Layer 1">
		<g class="cls-6">
			<rect class="cls-5" width="331.5" height="195" />
			<text class="cls-7" transform="translate(22.5 43.5)">
				<tspan x="0" y="0">When was your passport</tspan>
			</text>
			<text class="cls-7" transform="translate(22.5 69)">
				<tspan x="0" y="0">issued?</tspan>
			</text>
			<text class="cls-4" transform="translate(22.5 93)">
				<tspan x="0" y="0">F</tspan>
			</text>
			<text class="cls-4" transform="translate(31.05 93)">
				<tspan x="0" y="0">o</tspan>
			</text>
			<text class="cls-4" transform="translate(38.83 93)">
				<tspan x="0" y="0">r</tspan>
			</text>
			<text class="cls-4" transform="translate(43.49 93)">
				<tspan x="0" y="0"> </tspan>
			</text>
			<text class="cls-4" transform="translate(47.38 93)">
				<tspan x="0" y="0">e</tspan>
			</text>
			<text class="cls-4" transform="translate(55.16 93)">
				<tspan x="0" y="0">x</tspan>
			</text>
			<text class="cls-4" transform="translate(62.16 93)">
				<tspan x="0" y="0">a</tspan>
			</text>
			<text class="cls-4" transform="translate(69.95 93)">
				<tspan x="0" y="0">m</tspan>
			</text>
			<text class="cls-4" transform="translate(81.6 93)">
				<tspan x="0" y="0">p</tspan>
			</text>
			<text class="cls-4" transform="translate(89.39 93)">
				<tspan x="0" y="0">l</tspan>
			</text>
			<text class="cls-4" transform="translate(92.5 93)">
				<tspan x="0" y="0">e</tspan>
			</text>
			<text class="cls-4" transform="translate(100.28 93)">
				<tspan x="0" y="0">,</tspan>
			</text>
			<text class="cls-4" transform="translate(104.17 93)">
				<tspan x="0" y="0"> </tspan>
			</text>
			<text class="cls-4" transform="translate(108.05 93)">
				<tspan x="0" y="0">2</tspan>
			</text>
			<text class="cls-4" transform="translate(115.84 93)">
				<tspan x="0" y="0">7</tspan>
			</text>
			<text class="cls-4" transform="translate(123.62 93)">
				<tspan x="0" y="0"> </tspan>
			</text>
			<text class="cls-4" transform="translate(127.51 93)">
				<tspan x="0" y="0">3</tspan>
			</text>
			<text class="cls-4" transform="translate(135.29 93)">
				<tspan x="0" y="0"> </tspan>
			</text>
			<text class="cls-4" transform="translate(139.18 93)">
				<tspan x="0" y="0">2</tspan>
			</text>
			<text class="cls-4" transform="translate(146.96 93)">
				<tspan x="0" y="0">0</tspan>
			</text>
			<text class="cls-4" transform="translate(154.75 93)">
				<tspan x="0" y="0">2</tspan>
			</text>
			<text class="cls-4" transform="translate(162.53 93)">
				<tspan x="0" y="0">4</tspan>
			</text>
			<text class="cls-3" transform="translate(22.5 120.75)">
				<tspan x="0" y="0">D</tspan>
			</text>
			<text class="cls-3" transform="translate(32.61 120.75)">
				<tspan x="0" y="0">a</tspan>
			</text>
			<text class="cls-3" transform="translate(40.39 120.75)">
				<tspan x="0" y="0">y</tspan>
			</text>
			<rect class="cls-5" x="22.5" y="127.5" width="38.25" height="30" />
			<rect class="cls-2" x="23.25" y="128.25" width="36.75" height="28.5" />
			<text class="cls-3" transform="translate(76 120.75)">
				<tspan x="0" y="0">M</tspan>
			</text>
			<text class="cls-3" transform="translate(87.65 120.75)">
				<tspan x="0" y="0">o</tspan>
			</text>
			<text class="cls-3" transform="translate(95.44 120.75)">
				<tspan x="0" y="0">n</tspan>
			</text>
			<text class="cls-3" transform="translate(103.22 120.75)">
				<tspan x="0" y="0">t</tspan>
			</text>
			<text class="cls-3" transform="translate(107.11 120.75)">
				<tspan x="0" y="0">h</tspan>
			</text>
			<rect class="cls-5" x="75.75" y="127.5" width="39" height="30" />
			<rect class="cls-2" x="76.5" y="128.25" width="37.5" height="28.5" />
			<text class="cls-3" transform="translate(129.9 120.75)">
				<tspan x="0" y="0">Y</tspan>
			</text>
			<text class="cls-3" transform="translate(137.95 120.75)">
				<tspan x="0" y="0">e</tspan>
			</text>
			<text class="cls-3" transform="translate(145.74 120.75)">
				<tspan x="0" y="0">a</tspan>
			</text>
			<text class="cls-3" transform="translate(153.52 120.75)">
				<tspan x="0" y="0">r</tspan>
			</text>
			<rect class="cls-5" x="129.75" y="127.5" width="63" height="30" />
			<rect class="cls-2" x="130.5" y="128.25" width="61.5" height="28.5" />
		</g>
	</g>
</svg>